<?xml version="1.0" encoding="UTF-8" standalone="no"?>
<!-- Created with Inkscape (http://www.inkscape.org/) -->

<svg
   width="48.507927mm"
   height="73.026833mm"
   viewBox="0 0 48.507927 73.026832"
   version="1.1"
   id="svg1"
   xml:space="preserve"
   inkscape:version="1.3.2 (091e20ef0f, 2023-11-25)"
   sodipodi:docname="logo.svg"
   xmlns:inkscape="http://www.inkscape.org/namespaces/inkscape"
   xmlns:sodipodi="http://sodipodi.sourceforge.net/DTD/sodipodi-0.dtd"
   xmlns="http://www.w3.org/2000/svg"
   xmlns:svg="http://www.w3.org/2000/svg"><sodipodi:namedview
     id="namedview1"
     pagecolor="#ffffff"
     bordercolor="#000000"
     borderopacity="0.25"
     inkscape:showpageshadow="2"
     inkscape:pageopacity="0.0"
     inkscape:pagecheckerboard="0"
     inkscape:deskcolor="#d1d1d1"
     inkscape:document-units="px"
     inkscape:zoom="2.9354653"
     inkscape:cx="112.41829"
     inkscape:cy="135.75361"
     inkscape:window-width="2560"
     inkscape:window-height="1371"
     inkscape:window-x="0"
     inkscape:window-y="0"
     inkscape:window-maximized="1"
     inkscape:current-layer="layer1" /><defs
     id="defs1" /><g
     inkscape:label="Layer 1"
     inkscape:groupmode="layer"
     id="layer1"
     transform="translate(-80.808726,-110.57626)"><path
       style="fill:#000000;stroke:#000000;stroke-width:0.264583;stroke-dasharray:none;stroke-opacity:1"
       d="m 120.97173,183.41858 c -2.72298,0.3764 -5.5262,-1.32706 -6.43679,-3.9115 -0.50574,-1.43541 -0.59128,-1.54517 -1.0575,-1.35625 -5.21524,2.11356 -10.89612,-3.51955 -8.57529,-8.50296 0.39948,-0.85778 0.39948,-0.85778 -0.80416,-1.38728 -2.16733,-0.95342 -3.81935,-3.43667 -3.79261,-5.70092 0.015,-1.27423 -2.892063,-2.49155 -3.76178,-1.5752 -4.19593,4.42088 -11.436783,-2.41331 -7.802351,-7.36416 0.698137,-0.951 0.59784,-1.46554 -0.249505,-1.27998 -5.022617,1.09991 -8.805878,-2.64979 -7.163204,-7.09967 0.913936,-2.47578 4.021544,-4.07969 6.324023,-3.26399 1.396025,0.49458 2.336699,-0.81922 1.019031,-1.42322 -4.333817,-1.98658 -4.186073,-8.04636 0.239778,-9.83452 1.561559,-0.63091 3.55304,-0.4942 4.696039,0.32237 1.034711,0.73919 1.164557,0.67046 0.930557,-0.49266 -0.3765,-1.87149 0.959026,-5.31522 2.276903,-5.87112 0.19989,-0.084 0.144054,-0.53055 -0.161775,-1.29554 -2.007098,-5.0206 -1.112769,-10.78305 1.849081,-11.91378 2.720903,-1.03881 3.168063,-1.01984 2.473713,0.10467 -1.647618,2.66835 -2.306452,5.43101 -2.056971,8.62549 0.230214,2.94784 0.269035,3.0092 1.861051,2.94118 1.66094,-0.071 3.9333,0.86078 5.06245,2.07581 0.78557,0.84532 0.88554,0.87347 1.79568,0.50575 0.53008,-0.21416 1.5798,-0.37566 2.33271,-0.35888 1.36892,0.0305 1.36892,0.0305 2.20497,-1.03011 1.55661,-1.97472 4.40002,-2.68679 6.63927,-1.66265 4.41775,2.02048 4.09872,8.16017 -0.5148,9.90702 -2.611,0.98859 -0.54715,3.08627 2.24362,2.28037 6.35499,-1.83517 11.61239,6.49988 6.72611,10.66357 -0.17674,0.15057 0.0107,0.53338 0.68264,1.39413 2.20254,2.82138 1.07642,6.93703 -2.17806,7.9602 -1.13425,0.35656 -1.13425,0.35656 -0.64034,1.58592 0.79986,1.99042 0.32927,5.21912 -0.91493,6.27932 -0.19022,0.16206 -0.12107,0.32157 0.28706,0.66218 1.78903,1.49294 1.91504,5.34007 0.25532,7.79487 -0.59834,0.88498 -0.72928,1.2895 -0.47729,1.4745 3.95346,2.90224 1.75114,10.04708 -3.31267,10.74705 z m 2.10205,-2.88386 c 2.48352,-2.2883 1.05905,-8.11516 -1.71033,-6.99626 -0.30466,0.12309 -1.18217,0.17048 -1.95004,0.1053 -1.61709,-0.13725 -2.10707,0.14088 -2.97985,1.69146 -2.36289,4.19784 3.09176,8.46901 6.64022,5.1995 z m -8.3881,-5.7524 c 0.82748,-1.24638 1.10815,-2.68045 0.60654,-3.09905 -0.22449,-0.18734 -0.51364,-0.60167 -0.64255,-0.92075 -0.17678,-0.43755 -0.47031,-0.57141 -1.19427,-0.54461 -0.85331,0.0316 -2.62646,-0.65359 -3.74879,-1.4486 -0.89629,-0.63489 -2.54073,0.13608 -3.09987,1.45334 -2.15594,5.07909 5.03835,9.13948 8.07894,4.55967 z m 8.60139,-4.54768 c 1.16335,-1.38731 1.06903,-4.38455 -0.18012,-5.72411 -0.58086,-0.6229 -3.05992,0.7708 -3.72635,2.09491 -0.68505,1.36109 -1.65402,2.40981 -2.56763,2.77893 -0.79488,0.32115 -0.57018,0.94896 0.62468,1.74528 1.7734,1.18195 4.4514,0.77219 5.84946,-0.89503 z m -6.52916,-2.92886 c 1.27964,-1.277 1.32142,-2.00064 0.13782,-2.38701 -0.56004,-0.18282 -1.61989,-0.88103 -2.35525,-1.55159 -1.27112,-1.15912 -1.3364,-1.18451 -1.32468,-0.51519 0.0164,0.93561 -1.14232,3.57755 -1.7696,4.0348 -0.6331,0.46148 -0.46432,0.88023 0.5068,1.25703 1.72141,0.66811 3.62915,0.33536 4.80503,-0.83809 z m 5.64471,-5.28197 c 2.50571,-2.63394 1.30363,-6.85936 -2.21483,-7.78538 -0.82182,-0.2163 -0.82182,-0.2163 -1.30171,0.75471 -0.736,1.48929 -1.4347,2.18894 -2.98096,2.98505 -1.62026,0.83421 -1.71301,1.03171 -1.14816,2.44462 1.30522,3.26497 5.27244,4.09569 7.64566,1.601 z m -11.69701,2.85365 c 2.48138,-4.18478 -2.18276,-9.34329 -5.17392,-5.72232 -0.79736,0.96525 -1.46649,1.50599 -2.29497,1.85466 -1.11932,0.471 -1.16932,0.53822 -1.16604,1.56665 0.0145,4.56717 6.29832,6.24166 8.63493,2.30101 z m 16.20254,-13.14736 c 1.12266,-2.11843 -0.54687,-5.32278 -2.38611,-4.57968 -0.36811,0.14872 -1.06814,0.28979 -1.55561,0.31348 -1.9456,0.0945 -2.7298,1.80447 -1.83991,4.0119 1.00926,2.50335 4.50818,2.65728 5.78163,0.2543 z m -10.32405,3.58114 c 2.48774,-2.70405 0.6993,-7.39291 -2.94815,-7.72933 -0.55647,-0.0513 -0.77243,0.10003 -1.35786,0.95169 -0.67826,0.98671 -2.79193,2.48503 -3.52374,2.49788 -0.59768,0.0105 -0.47599,2.03936 0.20027,3.3391 1.44839,2.78367 5.47694,3.28036 7.62948,0.94066 z m -13.2113,3.54003 c 3.54945,-2.4913 1.0258,-8.54755 -3.22722,-7.7447 -4.322756,0.81601 -4.923599,6.86888 -0.835669,8.41851 1.289539,0.48884 2.751999,0.24629 4.062889,-0.67381 z m -7.720036,0.48396 c 0.03392,-0.19808 -0.210112,-0.96627 -0.542297,-1.7071 -0.423428,-0.94431 -0.572776,-1.68413 -0.499622,-2.47493 0.104351,-1.12797 0.104351,-1.12797 -0.644414,-1.09523 -0.711283,0.0311 -1.287649,-0.022 -2.492444,-0.22978 -1.974266,-0.34045 -2.672233,4.05815 -0.888787,5.6011 1.44027,1.24606 4.848907,1.18279 5.067564,-0.0941 z m 30.708116,-15.57656 c 1.58888,-1.97871 1.03358,-5.10049 -1.17767,-6.6205 -1.72695,-1.18712 -5.35287,-0.98838 -4.45445,0.24414 0.77073,1.05735 0.71577,3.62147 -0.11906,5.55479 -0.8515,1.97194 -0.77347,2.22566 0.78946,2.56701 2.12231,0.46351 3.60749,-0.0589 4.96172,-1.74544 z m -15.60497,3.94681 c 2.0886,-2.3883 1.12324,-6.51239 -1.84823,-7.89572 -1.72874,-0.8048 -3.63147,-0.49312 -3.54896,0.58134 0.0893,1.16325 -1.16695,3.51116 -2.39662,4.47915 -1.16082,0.91379 -1.16082,0.91379 -0.43822,2.17921 1.70906,2.99291 5.89655,3.32661 8.23203,0.65602 z m 7.12519,-3.89834 c 2.50378,-1.92231 2.00856,-6.35674 -0.85504,-7.65619 -0.88445,-0.40135 -0.88445,-0.40135 -1.82215,0.66491 -0.68973,0.78426 -1.34067,1.22902 -2.46155,1.68189 -1.35461,0.5473 -1.48511,0.65546 -1.1749,0.97407 1.30842,1.34379 1.87967,2.58955 2.18062,4.75538 0.16447,1.18364 2.33106,0.96347 4.13304,-0.42001 z m -20.803569,6.99315 c 1.954705,-1.80698 1.770319,-4.21044 -0.400353,-5.21859 -1.084397,-0.50364 -1.857722,-1.0812 -2.349393,-1.75462 -1.211,-1.65866 -3.596675,-0.76814 -4.810234,1.79554 -2.260236,4.77486 3.631062,8.80968 7.55998,5.17767 z m -9.737281,-1.68277 c -0.287091,-1.69558 -0.159603,-2.94405 0.431285,-4.22354 0.965048,-2.08969 -3.307786,-1.65491 -4.525634,0.4605 -1.271326,2.20831 0.278829,5.21895 2.795291,5.4289 1.500958,0.12521 1.584233,0.0184 1.299058,-1.66586 z m 14.84132,-6.0363 c 1.30549,-1.38897 1.72154,-3.15513 1.10358,-4.68465 -0.30167,-0.74667 -1.42788,-2.06439 -1.67798,-1.96335 -0.0943,0.0381 -0.9227,-0.0898 -1.84098,-0.28411 -2.659884,-0.56294 -4.52415,0.70744 -4.874062,3.32139 -0.553038,4.13131 4.46427,6.61657 7.289442,3.61072 z m 12.1407,-7.98932 c 2.52426,-3.92376 -1.21503,-9.10946 -5.58877,-7.75058 -1.3373,0.41547 -1.3373,0.41547 -1.19161,1.59917 0.24344,1.97801 -0.29074,3.60634 -1.81162,5.52225 -0.39385,0.49615 0.54009,1.67021 1.85511,2.33207 2.45935,1.2378 5.30834,0.51766 6.73689,-1.70291 z m 5.16264,-5.49859 c 2.11679,-2.41232 -1.20678,-6.78901 -4.10589,-5.40691 -0.26318,0.12553 -0.69923,0.33633 -0.96897,0.4685 -1.27143,0.62323 -1.23594,1.16709 0.15784,2.41897 0.95182,0.8549 1.43438,1.5191 1.8637,2.56522 0.72126,1.75741 1.481,1.74601 3.05331,-0.0458 z m -25.946196,7.99681 c 0.319533,-0.65794 0.702141,-1.29949 0.850235,-1.42568 0.150991,-0.12863 0.09962,-0.78238 -0.116918,-1.48817 -1.16622,-3.80116 -6.551716,-3.237 -6.92237,0.72516 -0.346868,3.70788 4.601381,5.45778 6.189053,2.18869 z m 10.722626,-4.38313 c 1.54409,-1.52674 1.93098,-3.33002 1.1364,-5.29667 -1.97065,-4.87755 -9.071775,-3.39913 -9.134367,1.90173 -0.04843,4.10225 5.080707,6.27945 7.997967,3.39494 z"
       id="path2" /><path
       style="fill:#00ff00;stroke:#1a1a1a;stroke-width:0.00796674"
       d="m 121.59587,181.44719 c -1.46025,0.53402 -3.14162,0.15785 -4.35966,-0.97539 -0.80771,-0.75149 -1.29681,-1.74897 -1.36418,-2.78217 -0.0306,-0.46861 0.0235,-0.94379 0.15932,-1.40055 0.10878,-0.36584 0.24523,-0.67295 0.48183,-1.08446 0.65476,-1.13882 1.10938,-1.50441 1.95953,-1.57582 0.22719,-0.0191 0.44633,-0.0153 0.88561,0.0153 0.56236,0.0392 0.9646,0.0424 1.3574,0.0109 0.32817,-0.0263 0.45326,-0.0498 0.69113,-0.12976 0.3259,-0.10953 0.51507,-0.13803 0.77388,-0.11659 0.17633,0.0146 0.32379,0.0535 0.49987,0.1317 0.11892,0.0528 0.1745,0.0843 0.28762,0.16288 1.03612,0.7196 1.60194,2.65146 1.30236,4.44663 -0.12353,0.7402 -0.40888,1.42933 -0.80817,1.95174 -0.31683,0.41451 -0.81177,0.825 -1.33301,1.10553 -0.10276,0.0553 -0.36441,0.17815 -0.43247,0.20304 -0.0226,0.008 -0.0681,0.0249 -0.10106,0.0369 z"
       id="path23" /><path
       style="fill:#bcd35f;stroke:#000000;stroke-width:1;stroke-dasharray:none"
       d="m 121.57097,181.44936 c -0.22762,0.0765 -0.41432,0.1266 -0.60024,0.16112 -1.26368,0.2347 -2.5952,-0.15024 -3.61951,-1.0464 -0.70063,-0.61297 -1.17979,-1.3963 -1.37979,-2.25562 -0.1261,-0.54184 -0.13286,-1.10473 -0.02,-1.66375 0.10966,-0.54311 0.31043,-1.01857 0.70077,-1.65954 0.33971,-0.55784 0.62108,-0.88096 0.94697,-1.08749 0.12066,-0.0765 0.37077,-0.17719 0.51661,-0.20815 0.3032,-0.0642 0.58282,-0.0781 1.03235,-0.0513 0.0953,0.006 0.26645,0.016 0.38031,0.0229 0.51032,0.031 0.91901,0.0276 1.31448,-0.011 0.231,-0.0226 0.33842,-0.0452 0.57802,-0.12183 0.34439,-0.11015 0.52854,-0.1359 0.78414,-0.10964 0.89145,0.0916 1.64088,0.98578 1.97374,2.35502 0.10497,0.43181 0.1633,0.92606 0.16357,1.38603 5.8e-4,0.97144 -0.21336,1.83281 -0.63711,2.56518 -0.0614,0.10606 -0.21344,0.32904 -0.28977,0.42489 -0.27874,0.35 -0.70878,0.71304 -1.15506,0.97514 -0.1774,0.10419 -0.53532,0.27257 -0.68952,0.32438 z"
       id="path24" /><path
       style="fill:#bcd35f;stroke:#000000;stroke-width:1;stroke-dasharray:none"
       d="m 121.27578,171.56331 c -0.9613,0.30658 -1.96214,0.31725 -2.85619,0.0305 -0.39918,-0.12805 -0.7187,-0.28694 -1.07978,-0.53694 -0.52377,-0.36263 -0.82909,-0.67029 -0.94316,-0.95038 -0.12845,-0.31509 0.0143,-0.55532 0.42981,-0.72365 0.41177,-0.16694 0.87504,-0.50579 1.29881,-0.95033 0.46796,-0.4909 0.89894,-1.11537 1.2573,-1.82178 0.30234,-0.59596 0.99591,-1.25668 1.82492,-1.73847 0.66651,-0.38736 1.27849,-0.57058 1.64339,-0.49203 0.1542,0.0332 0.23037,0.0911 0.39604,0.30084 0.27925,0.3536 0.50555,0.82266 0.65503,1.3577 0.19534,0.69923 0.24882,1.53116 0.14617,2.27378 -0.0593,0.42918 -0.15996,0.80364 -0.31223,1.16174 -0.155,0.36456 -0.32755,0.63109 -0.59292,0.91593 -0.31973,0.34317 -0.69857,0.62999 -1.15125,0.8716 -0.12384,0.0661 -0.57962,0.25807 -0.71594,0.30153 z"
       id="path25" /><path
       style="fill:#bcd35f;stroke:#000000;stroke-width:1;stroke-dasharray:none"
       d="m 112.40852,176.57193 c -0.90681,0.28805 -1.87667,0.26636 -2.84834,-0.0637 -0.14534,-0.0494 -0.43848,-0.17141 -0.58752,-0.24459 -0.9392,-0.46118 -1.71819,-1.1882 -2.20059,-2.05381 -0.10541,-0.18915 -0.14128,-0.2653 -0.2397,-0.50891 -0.1054,-0.26087 -0.14476,-0.38096 -0.2001,-0.61036 -0.1028,-0.42624 -0.13741,-0.85952 -0.10475,-1.31147 0.0289,-0.39985 0.10421,-0.77437 0.23225,-1.15499 0.16521,-0.49113 0.3288,-0.79656 0.59076,-1.10301 0.48744,-0.5702 1.1756,-0.93912 1.81237,-0.97159 0.24421,-0.0125 0.50178,0.0375 0.6921,0.13432 0.035,0.0178 0.13223,0.0787 0.21594,0.13531 0.70436,0.47616 1.55752,0.88959 2.38706,1.15672 0.5537,0.17831 0.95238,0.25124 1.33853,0.24485 0.60709,-0.01 0.8641,0.0762 1.05212,0.35313 0.0176,0.026 0.0647,0.11906 0.1047,0.20688 0.15785,0.34696 0.38186,0.67054 0.61356,0.8863 0.12886,0.11999 0.18065,0.20235 0.22216,0.35325 0.16939,0.61584 -0.12945,1.69041 -0.73757,2.6521 -0.45903,0.72591 -1.02683,1.26629 -1.71909,1.63603 -0.11934,0.0637 -0.4966,0.22309 -0.62388,0.26353 z"
       id="path26" /><path
       style="fill:#00ff00;stroke:#1a1a1a;stroke-width:0.00796674"
       d="m 115.27089,168.22738 c -0.94803,0.32812 -1.99713,0.33625 -2.99768,0.0232 -0.7348,-0.22989 -1.16645,-0.5187 -1.19459,-0.79926 -0.0176,-0.17531 0.0871,-0.3399 0.34509,-0.54267 0.11598,-0.0911 0.18414,-0.16057 0.28303,-0.28825 0.28958,-0.37388 0.60317,-0.95235 0.91981,-1.69678 0.27332,-0.64255 0.44096,-1.14025 0.53278,-1.58179 0.0483,-0.23211 0.0601,-0.34055 0.0599,-0.54832 -2.2e-4,-0.17195 0.008,-0.26429 0.0295,-0.31616 0.0174,-0.0428 0.0346,-0.058 0.0708,-0.0627 0.10577,-0.0136 0.34458,0.16426 0.92129,0.68628 0.13421,0.12149 0.30373,0.27408 0.37672,0.33911 0.55267,0.4924 1.30166,1.0155 1.87056,1.30642 0.13986,0.0715 0.2876,0.13341 0.51378,0.21524 0.27406,0.0991 0.46373,0.21689 0.5984,0.37148 0.0494,0.0567 0.0545,0.0656 0.0957,0.16688 0.0374,0.092 0.0442,0.11569 0.0485,0.16903 0.0268,0.33539 -0.17917,0.74064 -0.64461,1.26835 -0.45043,0.5107 -0.81424,0.80662 -1.30636,1.06258 -0.11291,0.0587 -0.41441,0.18989 -0.52252,0.22729 z"
       id="path27" /><path
       style="fill:#00ff00;stroke:#1a1a1a;stroke-width:0.0901332"
       d="m 119.73608,163.39005 c -1.19815,0.182 -2.65631,-0.25675 -3.60426,-1.08449 -0.57308,-0.5004 -0.96963,-1.09759 -1.34382,-2.02373 -0.51599,-1.27712 -0.45938,-1.38231 1.26288,-2.34642 1.51534,-0.84828 2.06395,-1.39946 2.84223,-2.85556 0.25421,-0.4756 0.50926,-0.88375 0.56678,-0.90699 0.14339,-0.0579 0.87704,0.13171 1.41646,0.36615 2.01809,0.8771 3.1467,3.02595 2.70534,5.15089 -0.23007,1.10765 -0.89934,2.15105 -1.81678,2.83238 -0.46752,0.3472 -1.49504,0.78669 -2.02883,0.86777 z"
       id="path28" /><path
       style="fill:#bcd35f;stroke:#000000;stroke-width:1;stroke-dasharray:none"
       d="m 108.07106,166.8755 c -0.44297,0.10894 -1.26028,0.17844 -1.68886,0.14361 -1.19463,-0.0971 -2.53036,-0.7799 -3.2632,-1.66812 -0.69927,-0.84753 -1.08821,-2.1125 -0.9906,-3.22176 0.0439,-0.49899 0.16806,-0.62927 0.96576,-1.01339 0.99542,-0.47932 1.3515,-0.74869 2.25152,-1.70325 1.2107,-1.28408 1.99257,-1.61524 3.1394,-1.32972 1.73484,0.43193 3.06169,2.65581 2.83909,4.75852 -0.12605,1.19063 -0.76334,2.41637 -1.64676,3.16733 -0.40175,0.3415 -1.18162,0.76232 -1.60635,0.86678 z"
       id="path29" /><path
       style="fill:#ff0000;stroke:#1a1a1a;stroke-width:0.0901332"
       d="m 113.68758,156.71606 c -1.7397,0.15808 -3.30022,-0.49412 -4.33285,-1.81089 -0.6271,-0.79966 -1.07227,-2.51136 -0.89078,-3.42511 0.0513,-0.25842 0.0948,-0.29102 0.73416,-0.54996 1.14147,-0.46232 2.45477,-1.49877 3.26312,-2.5752 0.54814,-0.72994 0.77549,-0.82169 1.60763,-0.64896 1.25323,0.2603 2.27203,1.01048 2.95116,2.17301 1.1247,1.92527 0.80312,4.21476 -0.80149,5.70623 -0.56721,0.52721 -1.76165,1.06085 -2.531,1.13076 z"
       id="path30" /><path
       style="fill:#ff0000;stroke:#1a1a1a;stroke-width:0.0901332"
       d="m 100.99416,159.70882 c -1.537017,0.0785 -2.974277,-0.674 -3.781956,-1.98018 -0.98449,-1.59213 -0.738891,-3.84225 0.575489,-5.27247 0.481733,-0.52418 0.605859,-0.61088 1.353654,-0.94548 0.678519,-0.30359 0.929003,-0.37448 1.424333,-0.40347 1.13916,-0.0665 2.05264,0.2524 2.91213,1.01677 1.4094,1.25342 1.90967,3.34407 1.1996,5.01317 -0.45405,1.0673 -1.18484,1.73618 -2.45295,2.24512 -0.49317,0.19783 -0.91754,0.31056 -1.2303,0.32654 z"
       id="path31" /><path
       style="fill:#ff0000;stroke:#1a1a1a;stroke-width:0.0901332"
       d="m 93.930412,160.2679 c -1.3518,0.10312 -2.988567,-0.4222 -3.563239,-1.14364 -0.395923,-0.49703 -0.606047,-1.01217 -0.699937,-1.71595 -0.210728,-1.57961 0.297045,-3.0811 1.159858,-3.42969 0.2939,-0.11875 0.551622,-0.12155 1.266798,-0.0138 0.493809,0.0744 1.204225,0.13453 1.578701,0.1336 0.374475,-9.2e-4 0.738596,0.0396 0.809155,0.0899 0.08986,0.0642 0.118258,0.30068 0.09482,0.78941 -0.05123,1.06783 -0.02276,1.21322 0.546227,2.79046 l 0.530646,1.47095 -0.152993,0.29641 c -0.127536,0.24709 -0.239515,0.33029 -0.672908,0.49997 -0.285947,0.11196 -0.68966,0.2165 -0.897132,0.23233 z"
       id="path32" /><path
       style="fill:#ff0000;stroke:#1a1a1a;stroke-width:0.0901332"
       d="m 124.43976,153.37294 c -1.65172,0.18858 -3.08701,-0.87656 -3.4879,-2.58841 -0.26136,-1.11598 -0.13757,-1.93863 0.38245,-2.54157 0.36059,-0.41808 0.89046,-0.63334 2.01452,-0.81837 0.50133,-0.0825 1.10779,-0.20308 1.34769,-0.26791 1.71527,-0.46347 3.1737,2.47892 2.21111,4.46092 -0.45668,0.94033 -1.43707,1.63766 -2.46787,1.75534 z"
       id="path33" /><path
       style="fill:#ff0000;stroke:#1a1a1a;stroke-width:0.0901332"
       d="m 107.49178,149.42407 c -0.89494,0.10913 -1.76988,-0.0122 -2.59306,-0.35958 -1.04021,-0.43897 -1.71748,-1.04466 -2.36741,-2.11721 -0.44409,-0.73285 -0.47794,-0.81593 -0.43024,-1.05604 0.0285,-0.14334 0.1902,-0.38264 0.3594,-0.53178 0.1692,-0.14913 0.50777,-0.44799 0.75237,-0.66413 1.0142,-0.89618 2.06866,-2.86822 2.1677,-4.05405 0.0635,-0.76035 0.18221,-0.91905 0.83487,-1.11634 1.0613,-0.3208 2.79618,0.17062 3.81036,1.07933 2.45975,2.20393 2.35832,6.07099 -0.20681,7.88476 -0.60481,0.42766 -1.66736,0.85458 -2.32717,0.93505 z"
       id="path34" /><path
       style="fill:#ff0000;stroke:#1a1a1a;stroke-width:0.0901332"
       d="m 115.29936,144.91048 c -0.59081,0.0719 -1.07411,-0.0273 -1.29531,-0.26606 -0.11366,-0.12267 -0.21063,-0.44479 -0.32958,-1.09486 -0.25211,-1.37768 -0.87344,-2.74592 -1.64733,-3.62756 -0.33709,-0.38402 -0.54792,-0.68784 -0.52113,-0.75096 0.0247,-0.0583 0.62771,-0.37546 1.33991,-0.70481 1.39165,-0.64354 1.6055,-0.79634 2.61114,-1.86576 0.29191,-0.31042 0.60631,-0.59493 0.69868,-0.63225 0.24562,-0.0992 1.24265,0.37386 1.77075,0.84024 1.83289,1.61867 2.0341,4.69301 0.4245,6.48623 -0.69516,0.77446 -2.05487,1.49441 -3.05163,1.61579 z"
       id="path35" /><path
       style="fill:#ff0000;stroke:#1a1a1a;stroke-width:0.0901332"
       d="m 94.601046,152.06285 c -2.4525,0.46121 -4.907122,-1.07112 -5.417719,-3.38207 -0.21868,-0.98973 -0.122209,-1.7846 0.349768,-2.88198 0.542475,-1.26129 1.177054,-1.99433 2.107399,-2.43436 1.162537,-0.54985 1.878398,-0.39186 2.756867,0.60844 0.526092,0.59906 1.272315,1.1468 2.352998,1.72714 1.079123,0.5795 1.594627,1.33093 1.621425,2.36349 0.04302,1.6574 -1.819008,3.63231 -3.770738,3.99934 z"
       id="path36" /><path
       style="fill:#ff0000;stroke:#1a1a1a;stroke-width:0.0901332"
       d="m 123.12722,145.60142 c -0.94963,0.0709 -2.54334,-0.25115 -2.84289,-0.57445 -0.24745,-0.26707 -0.18661,-0.65007 0.31586,-1.98812 0.50234,-1.33774 0.71914,-2.402 0.71149,-3.4926 -0.005,-0.64328 -0.0538,-0.8814 -0.34712,-1.67569 -0.22727,-0.61549 -0.31661,-0.96369 -0.26655,-1.03872 0.0414,-0.0621 0.31201,-0.19386 0.60133,-0.29287 0.41121,-0.14071 0.71484,-0.16562 1.39092,-0.11408 2.00886,0.15314 3.43738,1.15522 4.14556,2.90804 0.68211,1.68828 0.40722,3.35884 -0.7694,4.67583 -0.30013,0.33594 -0.69947,0.71742 -0.88741,0.84774 -0.52424,0.36351 -1.45133,0.7001 -2.05179,0.74492 z"
       id="path37" /><path
       style="fill:#00ffff;stroke:#1a1a1a;stroke-width:0.0901332"
       d="m 99.680965,144.33058 c -0.991605,0.11443 -2.046663,-0.15374 -2.904699,-0.73831 -1.698331,-1.15704 -2.295927,-3.1934 -1.534673,-5.22951 0.373231,-0.99827 0.835723,-1.51388 1.717525,-1.91479 1.027947,-0.46735 1.262486,-0.47261 3.838652,-0.0861 0.34149,0.0512 0.75855,0.14553 0.92679,0.20956 0.38313,0.1458 1.03248,0.92329 1.4205,1.7008 1.17995,2.3644 -0.75335,5.74558 -3.464095,6.05839 z"
       id="path38" /><path
       style="fill:#afdde9;stroke:#000000;stroke-width:1;stroke-dasharray:none"
       d="m 93.787422,160.18632 c -1.069662,0.0548 -2.510173,-0.36546 -3.146451,-0.91801 -0.17151,-0.14894 -0.42192,-0.49073 -0.556469,-0.75954 -0.74367,-1.48577 -0.302788,-4.01183 0.775995,-4.4461 0.205861,-0.0829 3.279392,0.0977 3.539073,0.20796 0.05611,0.0238 0.09749,0.42559 0.0934,0.90673 -0.008,0.9357 0.195327,1.76786 0.803992,3.29121 l 0.309825,0.77546 -0.204697,0.27534 c -0.260049,0.34979 -0.944796,0.63263 -1.61468,0.66695 z"
       id="path39" /><path
       style="fill:#afdde9;stroke:#000000;stroke-width:1;stroke-dasharray:none"
       d="m 101.22192,159.60019 c -1.450168,0.22013 -3.127589,-0.60952 -3.947628,-1.9525 -0.936328,-1.53343 -0.676836,-3.7432 0.606667,-5.16623 0.454831,-0.50427 0.502256,-0.5341 1.472749,-0.92637 0.920862,-0.3722 1.050862,-0.40274 1.591302,-0.37393 0.77822,0.0415 1.47708,0.26851 2.019,0.65582 2.50855,1.79286 2.59101,5.42771 0.1586,6.99159 -0.46799,0.30088 -1.46439,0.70539 -1.90068,0.77163 z"
       id="path40" /><path
       style="fill:#afdde9;stroke:#000000;stroke-width:1;stroke-dasharray:none"
       d="m 113.81107,156.6061 c -1.6986,0.25044 -3.57301,-0.55286 -4.50641,-1.93127 -0.53975,-0.79708 -0.98032,-2.73271 -0.73269,-3.2191 0.0642,-0.12611 0.34864,-0.30855 0.86937,-0.55762 1.01772,-0.48679 1.9271,-1.20303 2.86248,-2.25452 0.85297,-0.95886 0.98249,-1.02149 1.75675,-0.84943 2.37351,0.52744 3.91968,2.96226 3.43004,5.40142 -0.34874,1.73723 -1.86547,3.14307 -3.67954,3.41052 z"
       id="path41" /><path
       style="fill:#afdde9;stroke:#000000;stroke-width:1;stroke-dasharray:none"
       d="m 124.56696,153.26769 c -0.94604,0.14541 -1.90375,-0.16662 -2.63655,-0.85901 -0.73029,-0.69003 -1.16199,-2.12809 -0.95604,-3.18477 0.13455,-0.69032 0.47821,-1.10567 1.13351,-1.36998 0.67569,-0.27242 2.77965,-0.68764 3.1998,-0.63132 0.19315,0.0259 0.47955,0.19146 0.76233,0.44072 0.39741,0.35031 0.48804,0.4864 0.73914,1.10994 0.62977,1.56367 0.28059,3.02502 -0.93739,3.92376 -0.49038,0.36186 -0.78518,0.49079 -1.3048,0.57066 z"
       id="path42" /><path
       style="fill:#afdde9;stroke:#000000;stroke-width:1;stroke-dasharray:none"
       d="m 123.49061,145.47983 c -0.74938,0.13215 -2.2436,-0.067 -2.87059,-0.38253 -0.49477,-0.24902 -0.49361,-0.41755 0.013,-1.89731 0.50674,-1.48011 0.66751,-2.20862 0.7263,-3.29129 0.0418,-0.76962 0.0144,-0.95785 -0.28253,-1.93885 l -0.32881,-1.08648 0.54439,-0.21341 c 0.44799,-0.17561 0.6769,-0.20434 1.29268,-0.16222 1.94453,0.133 3.25793,0.9749 4.03128,2.58408 0.86271,1.79511 0.61,3.46539 -0.75281,4.97585 -0.59816,0.66297 -0.68564,0.72824 -1.394,1.04008 -0.41569,0.18299 -0.8562,0.35044 -0.97892,0.37208 z"
       id="path43" /><path
       style="fill:#afdde9;stroke:#000000;stroke-width:1;stroke-dasharray:none"
       d="m 115.45613,144.79945 c -0.53249,0.10208 -1.18129,0.003 -1.33136,-0.20246 -0.13045,-0.17897 -0.17682,-0.32622 -0.58578,-1.86017 -0.29105,-1.09171 -0.73479,-1.96097 -1.48002,-2.89929 -0.24831,-0.31266 -0.43934,-0.59706 -0.4245,-0.63201 0.0148,-0.035 0.53459,-0.31228 1.15501,-0.61628 1.3931,-0.68262 1.70645,-0.89924 2.57607,-1.78085 0.37931,-0.38454 0.75144,-0.72484 0.82696,-0.75622 0.20205,-0.0839 1.29042,0.46817 1.73191,0.87859 1.36049,1.26475 1.79217,3.30499 1.07932,5.10117 -0.53396,1.34545 -1.96893,2.46488 -3.54761,2.76752 z"
       id="path44" /><path
       style="fill:#00ffff;stroke:#1a1a1a;stroke-width:0.0901332"
       d="m 107.64079,149.31531 c -1.06107,0.20444 -2.7043,-0.17341 -3.63215,-0.83519 -0.52076,-0.37142 -1.08125,-1.02693 -1.52883,-1.78799 -0.33105,-0.56292 -0.34437,-0.60883 -0.24837,-0.85617 0.0558,-0.14374 0.31967,-0.45193 0.58641,-0.68487 1.3693,-1.19576 2.43979,-2.99158 2.62131,-4.39743 0.10154,-0.78636 0.2458,-0.98677 0.82368,-1.14427 1.33634,-0.36422 3.16159,0.35988 4.32926,1.71747 0.51362,0.59715 1.07372,2.02992 1.11584,2.85438 0.045,0.88087 -0.062,1.49594 -0.40173,2.30978 -0.59454,1.42416 -1.99361,2.50218 -3.66542,2.82429 z"
       id="path45" /><path
       style="fill:#00ffff;stroke:#1a1a1a;stroke-width:0.0901332"
       d="m 94.357505,152.01207 c -0.879679,0.107 -1.59284,0.003 -2.458866,-0.3599 -1.396456,-0.58455 -2.291747,-1.5948 -2.606674,-2.94139 -0.208906,-0.89326 -0.15242,-1.61443 0.198007,-2.52803 0.622357,-1.62256 1.422462,-2.5175 2.587216,-2.89387 0.96348,-0.31134 1.390643,-0.16045 2.353207,0.83123 0.494196,0.50915 1.299566,1.09377 2.349636,1.70562 1.42547,0.83059 1.833344,1.9432 1.230876,3.35763 -0.624715,1.46666 -2.147244,2.6455 -3.653402,2.82871 z"
       id="path46" /><path
       style="fill:#de8787;stroke:#000000;stroke-width:1;stroke-dasharray:none"
       d="m 99.536096,144.24404 c -1.771466,0.13233 -3.569679,-0.9653 -4.225881,-2.57949 -0.418213,-1.02876 -0.391236,-2.12473 0.08231,-3.3444 0.410304,-1.05677 0.759315,-1.41018 1.81746,-1.84039 0.800962,-0.32561 0.80299,-0.32586 1.846447,-0.24204 0.574541,0.0462 1.414858,0.15512 1.867368,0.24211 0.71325,0.13712 0.87436,0.20697 1.21052,0.52488 0.55028,0.52039 1.09946,1.48528 1.20301,2.11364 0.14107,0.85604 0.0504,1.50186 -0.33679,2.39761 -0.69673,1.61203 -1.97248,2.61662 -3.464446,2.72808 z"
       id="path47" /><path
       style="fill:#de8787;stroke:#000000;stroke-width:1;stroke-dasharray:none"
       d="m 91.081638,139.26167 c -0.757888,0.05 -1.71707,-0.25667 -2.372927,-0.75878 -1.579654,-1.20934 -1.765311,-3.67763 -0.392133,-5.21338 0.40931,-0.45777 0.501421,-0.51753 1.278941,-0.8298 0.770559,-0.30933 0.890829,-0.33287 1.496687,-0.29126 1.236934,0.0849 2.308282,0.78644 2.855196,1.86951 0.367745,0.72825 0.56952,1.71053 0.411562,2.00353 -0.537274,0.9966 -1.184733,2.06954 -1.403084,2.32511 -0.328224,0.38418 -1.321608,0.85859 -1.874242,0.89507 z"
       id="path48" /><path
       style="fill:#de8787;stroke:#000000;stroke-width:1;stroke-dasharray:none"
       d="m 86.329936,150.75488 c -0.831048,-0.058 -1.313665,-0.21786 -1.897837,-0.62879 -1.76979,-1.24495 -2.108547,-3.8046 -0.703701,-5.31715 0.353698,-0.38082 0.473074,-0.45071 1.430528,-0.83755 0.977723,-0.39502 1.081617,-0.41936 1.622146,-0.38012 0.624155,0.0453 1.021732,0.286 1.072179,0.64904 0.01582,0.11386 -0.105764,0.579 -0.270187,1.03366 -0.476628,1.31797 -0.525277,2.0455 -0.264074,3.94905 0.06951,0.50658 0.10582,1.0278 0.08069,1.15825 -0.061,0.31657 -0.36505,0.42276 -1.06974,0.37361 z"
       id="path49" /><path
       style="fill:#de8787;stroke:#000000;stroke-width:1;stroke-dasharray:none;stroke-opacity:1"
       d="m 101.99816,134.38424 c -0.69304,0.15468 -1.82216,0.0546 -2.587129,-0.22943 -2.622423,-0.97352 -3.772911,-3.6842 -2.67225,-6.29613 0.551275,-1.30821 1.379673,-2.05953 2.831127,-2.56772 1.744812,-0.61089 3.542542,-0.21237 4.778362,1.05926 0.52518,0.54041 1.17202,1.85264 1.32249,2.68297 0.31553,1.74104 -0.54562,3.62776 -2.14444,4.69834 -0.59514,0.39852 -0.82047,0.49476 -1.52816,0.65271 z"
       id="path50" /><path
       style="fill:#de8787;stroke:#000000;stroke-width:1;stroke-dasharray:none"
       d="m 110.82505,137.29066 c -1.41414,0.2081 -3.24486,-0.33042 -4.27765,-1.25832 -0.49549,-0.44517 -0.92173,-1.10528 -0.85944,-1.33102 0.0172,-0.0625 0.27966,-0.47337 0.58319,-0.91313 1.06648,-1.54518 1.45304,-2.90325 1.31296,-4.61267 -0.10307,-1.2577 -0.0655,-1.3403 0.74623,-1.64041 1.28403,-0.47473 2.47948,-0.46353 3.65208,0.0342 1.19887,0.50889 2.15283,1.51001 2.68191,2.81449 0.56375,1.38968 0.55693,2.56139 -0.0225,3.92179 -0.69543,1.63276 -2.10184,2.7327 -3.81679,2.98507 z"
       id="path51" /><path
       style="fill:#de8787;stroke:#000000;stroke-width:1;stroke-dasharray:none"
       d="m 117.62648,130.90132 c -0.40548,4.3e-4 -0.63764,-0.25896 -1.13327,-1.26623 -0.55293,-1.12368 -0.83497,-1.53912 -1.48924,-2.19358 -0.26654,-0.2666 -0.65641,-0.65593 -0.86639,-0.86515 -0.43831,-0.43674 -0.66751,-0.9151 -0.55991,-1.16858 0.13724,-0.32333 0.59962,-0.62258 1.61208,-1.04333 0.87016,-0.36161 1.06932,-0.41511 1.47205,-0.39541 0.68523,0.0335 1.46209,0.40184 2.11702,1.00372 0.51261,0.47108 0.60107,0.59836 0.93402,1.34389 0.43024,0.96341 0.49517,1.59496 0.24161,2.35005 -0.1676,0.49911 -0.82998,1.33238 -1.44855,1.82227 -0.44651,0.35363 -0.57106,0.41203 -0.87942,0.41235 z"
       id="path52" /><path
       style="fill:#de8787;stroke:#000000;stroke-width:1;stroke-dasharray:none;stroke-opacity:1"
       d="m 94.316697,151.93541 c -0.798255,0.0878 -1.475674,-0.0277 -2.386156,-0.40707 -1.760687,-0.73359 -2.747534,-2.207 -2.65825,-3.96892 0.05147,-1.01565 0.718124,-2.52602 1.462267,-3.3129 0.724105,-0.7657 1.927843,-1.19181 2.561396,-0.90673 0.167727,0.0755 0.585744,0.39808 0.928928,0.71689 0.640925,0.5954 1.48718,1.21729 2.53466,1.86262 0.754142,0.46462 1.18641,0.96086 1.345523,1.54465 0.278563,1.02207 -0.308799,2.37853 -1.470387,3.39573 -0.568771,0.49808 -1.656679,1.00295 -2.317981,1.07573 z"
       id="path53" /><path
       style="fill:#de8787;stroke:#000000;stroke-width:1;stroke-dasharray:none"
       d="m 107.56697,149.24521 c -0.78909,0.12215 -1.97164,-0.0904 -2.94724,-0.52982 -0.73761,-0.33219 -1.55553,-1.17594 -2.15471,-2.22276 -0.29268,-0.51133 -0.23823,-0.64952 0.55983,-1.42083 1.35062,-1.30535 2.22411,-2.796 2.48664,-4.24356 0.14603,-0.80523 0.29702,-1.01202 0.83372,-1.14184 1.48062,-0.35814 3.64426,0.71473 4.54004,2.25123 1.57424,2.70026 0.5113,5.89544 -2.33074,7.0061 -0.34632,0.13533 -0.79071,0.27101 -0.98754,0.30148 z"
       id="path54" /><path
       style="fill:#00ffff;stroke:#1a1a1a;stroke-width:0.0901332"
       d="m 114.73414,168.3292 c -1.13697,0.24455 -2.75387,-0.0336 -3.40357,-0.58556 -0.29439,-0.25009 -0.26622,-0.38516 0.17865,-0.85651 0.72875,-0.77214 1.67025,-2.90404 1.75029,-3.96329 0.0177,-0.23438 0.0588,-0.43691 0.0914,-0.45006 0.0325,-0.0131 0.41186,0.28199 0.84293,0.65586 1.05143,0.91191 1.77572,1.41175 2.66719,1.84067 0.40893,0.19675 0.77306,0.43089 0.80918,0.5203 0.18822,0.46586 -0.6976,1.71475 -1.63712,2.30813 -0.51036,0.32233 -0.70962,0.4037 -1.29892,0.53045 z"
       id="path55" /><path
       style="fill:#afdde9;stroke:#000000;stroke-width:1;stroke-dasharray:none"
       d="m 119.66935,163.31245 c -0.58463,0.0904 -1.55013,-0.0578 -2.24722,-0.3449 -1.28369,-0.5287 -2.06148,-1.39201 -2.60528,-2.89172 -0.35793,-0.98714 -0.32055,-1.10216 0.52423,-1.61273 2.46185,-1.48792 2.72223,-1.73467 3.7288,-3.53362 0.36645,-0.65492 0.39519,-0.68398 0.64967,-0.65705 0.48163,0.051 1.39944,0.43515 1.92919,0.80749 1.40325,0.98629 2.1744,2.83137 1.8699,4.47398 -0.20945,1.12984 -1.05804,2.42266 -1.97878,3.01464 -0.48456,0.31153 -1.38173,0.66835 -1.87051,0.74392 z"
       id="path56" /><path
       style="fill:#bcd35f;stroke:#000000;stroke-width:1;stroke-dasharray:none"
       d="m 114.48444,168.2778 c -0.74535,0.10995 -1.85361,-0.0195 -2.52788,-0.29532 -0.76704,-0.31374 -0.83732,-0.50442 -0.38591,-1.04694 0.80709,-0.97001 1.72922,-3.0545 1.77053,-4.0023 0.006,-0.14619 0.0343,-0.27496 0.062,-0.28615 0.0277,-0.0112 0.37619,0.25265 0.77441,0.58633 1.01428,0.84987 1.54872,1.22085 2.52872,1.75528 0.46834,0.2554 0.87155,0.51393 0.89602,0.57449 0.0664,0.16437 -0.33046,0.92399 -0.70964,1.35823 -0.38123,0.4366 -1.14289,0.99939 -1.57624,1.16468 -0.16214,0.0619 -0.53653,0.14811 -0.83197,0.1917 z"
       id="path57" /></g></svg>
