<?xml version="1.0" encoding="UTF-8" standalone="no"?>
<svg
   height="112.38233"
   width="128"
   version="1.1"
   id="Capa_1"
   viewBox="0 0 80.42624 70.613191"
   xml:space="preserve"
   sodipodi:docname="logo.svg"
   inkscape:version="1.3.2 (091e20e, 2023-11-25, custom)"
   xmlns:inkscape="http://www.inkscape.org/namespaces/inkscape"
   xmlns:sodipodi="http://sodipodi.sourceforge.net/DTD/sodipodi-0.dtd"
   xmlns="http://www.w3.org/2000/svg"
   xmlns:svg="http://www.w3.org/2000/svg"><defs
   id="defs21">
	
	
	
	
	
	
	
	
	
	
	
	
	
	
	
	

		
	
			
			
			
			
			
		</defs><sodipodi:namedview
   id="namedview21"
   pagecolor="#ffffff"
   bordercolor="#000000"
   borderopacity="0.25"
   inkscape:showpageshadow="2"
   inkscape:pageopacity="0.0"
   inkscape:pagecheckerboard="0"
   inkscape:deskcolor="#d1d1d1"
   inkscape:zoom="8.0398041"
   inkscape:cx="57.153134"
   inkscape:cy="54.043605"
   inkscape:window-width="2560"
   inkscape:window-height="1351"
   inkscape:window-x="-9"
   inkscape:window-y="-9"
   inkscape:window-maximized="1"
   inkscape:current-layer="Capa_1" />
<polygon
   style="fill:none;fill-opacity:1;stroke:#194166;stroke-width:7.85413;stroke-dasharray:none;stroke-opacity:1"
   points="69.048,194.202 49.742,267.542 28.775,194.202 0,194.202 35.419,306.111 64.238,306.111 83.155,234.108 102.504,306.111 130.978,306.111 166.979,194.202 137.708,194.202 116.353,267.542 97.629,194.202 "
   id="polygon1"
   transform="matrix(0.15664969,0,0,0.15664969,0.83995091,-4.0644838)" /><polygon
   style="fill:none;fill-opacity:1;stroke:#194166;stroke-width:7.85413;stroke-dasharray:none;stroke-opacity:1"
   points="251.019,234.108 270.411,306.111 298.842,306.111 334.843,194.202 305.636,194.202 284.173,267.542 265.472,194.202 236.912,194.202 217.584,267.542 196.531,194.202 167.756,194.202 203.24,306.111 232.08,306.111 "
   id="polygon2"
   transform="matrix(0.15664969,0,0,0.15664969,0.83995091,-4.0644838)" /><polygon
   style="fill:none;fill-opacity:1;stroke:#194166;stroke-width:7.85413;stroke-dasharray:none;stroke-opacity:1"
   points="371.082,306.111 399.879,306.111 418.818,234.108 438.146,306.111 466.662,306.111 502.664,194.202 473.392,194.202 451.973,267.542 433.292,194.202 404.668,194.202 385.34,267.542 364.395,194.202 335.577,194.202 "
   id="polygon3"
   transform="matrix(0.15664969,0,0,0.15664969,0.83995091,-4.0644838)" /><path
   style="fill:none;fill-opacity:1;stroke:#194166;stroke-width:3.07587;stroke-dasharray:24.607, 3.07587;stroke-dashoffset:0;stroke-opacity:1"
   d="m 40.209308,1.5379357 c -13.560223,0 -25.224673,8.015138 -30.5905518,19.5443983 H 70.803306 C 65.430691,9.5530737 53.769532,1.5379357 40.209308,1.5379357 Z"
   id="path3" /><path
   style="fill:none;fill-opacity:1;stroke:#194166;stroke-width:3.07587;stroke-dasharray:24.607, 3.07587;stroke-dashoffset:0;stroke-opacity:1"
   d="m 40.209308,69.075256 c 13.563514,0 25.214491,-8.011691 30.590552,-19.544398 H 9.6254921 C 14.991371,61.060118 26.649241,69.075256 40.209308,69.075256 Z"
   id="path4" /><g
   id="g6"
   style="fill:#1a1a1a"
   transform="matrix(0.16,0,0,0.16,0.85791518,-4.1514121)">
	</g><g
   id="g7"
   style="fill:#1a1a1a"
   transform="matrix(0.16,0,0,0.16,0.85791518,-4.1514121)">
	</g><g
   id="g8"
   style="fill:#1a1a1a"
   transform="matrix(0.16,0,0,0.16,0.85791518,-4.1514121)">
	</g><g
   id="g9"
   style="fill:#1a1a1a"
   transform="matrix(0.16,0,0,0.16,0.85791518,-4.1514121)">
	</g><g
   id="g10"
   style="fill:#1a1a1a"
   transform="matrix(0.16,0,0,0.16,0.85791518,-4.1514121)">
	</g><g
   id="g11"
   style="fill:#1a1a1a"
   transform="matrix(0.16,0,0,0.16,0.85791518,-4.1514121)">
	</g><g
   id="g12"
   style="fill:#1a1a1a"
   transform="matrix(0.16,0,0,0.16,0.85791518,-4.1514121)">
	</g><g
   id="g13"
   style="fill:#1a1a1a"
   transform="matrix(0.16,0,0,0.16,0.85791518,-4.1514121)">
	</g><g
   id="g14"
   style="fill:#1a1a1a"
   transform="matrix(0.16,0,0,0.16,0.85791518,-4.1514121)">
	</g><g
   id="g15"
   style="fill:#1a1a1a"
   transform="matrix(0.16,0,0,0.16,0.85791518,-4.1514121)">
	</g><g
   id="g16"
   style="fill:#1a1a1a"
   transform="matrix(0.16,0,0,0.16,0.85791518,-4.1514121)">
	</g><g
   id="g17"
   style="fill:#1a1a1a"
   transform="matrix(0.16,0,0,0.16,0.85791518,-4.1514121)">
	</g><g
   id="g18"
   style="fill:#1a1a1a"
   transform="matrix(0.16,0,0,0.16,0.85791518,-4.1514121)">
	</g><g
   id="g19"
   style="fill:#1a1a1a"
   transform="matrix(0.16,0,0,0.16,0.85791518,-4.1514121)">
	</g><g
   id="g20"
   style="fill:#1a1a1a"
   transform="matrix(0.16,0,0,0.16,0.85791518,-4.1514121)">
	</g>
</svg>
